<svg width="952px" height="358px" viewBox="0 0 952 358" version="1.1"
    xmlns="http://www.w3.org/2000/svg"
    xmlns:xlink="http://www.w3.org/1999/xlink">
    <style xmlns="http://www.w3.org/2000/svg">
		#msgpack { 
    	animation-name: floating;
    	animation-duration: 3s;
    	animation-iteration-count: infinite;
   	 	animation-timing-function: ease-in-out;
		}
 
		@keyframes floating {
    	0% { transform: translate(0,  0px); }
    	50% { transform: translate(0, -5px); }
    	100% { transform: translate(0, 0px); }
		}
    </style>
    <defs>
        <linearGradient x1="49.9997366%" y1="100%" x2="49.9997366%" y2="0%" id="linearGradient-ffjchnle2t-1">
            <stop stop-color="#7400E1" offset="0%"></stop>
            <stop stop-color="#4000BF" offset="100%"></stop>
        </linearGradient>
        <linearGradient x1="49.9997366%" y1="100%" x2="49.9997366%" y2="0%" id="linearGradient-ffjchnle2t-2">
            <stop stop-color="#7400E1" offset="0%"></stop>
            <stop stop-color="#4000BF" offset="100%"></stop>
        </linearGradient>
    </defs>
    <g id="Page-1" stroke="none" stroke-width="1" fill="none" fill-rule="evenodd">
        <g id="Banner" transform="translate(0.000000, -0.000000)">
            <g id="msgpack" fill="#000000" fill-rule="nonzero">
                <g id="Group" transform="translate(476.000000, 179.000000) scale(-1, 1) rotate(-180.000000) translate(-476.000000, -179.000000) translate(0.000000, 0.000000)">
                    <path d="M1.10965565e-14,179 L1.10965565e-14,0 L476,0 L952,0 L952,179 L952,358 L476,358 L1.10965565e-14,358 L1.10965565e-14,179 Z M120.904,199.510417 C127.885333,181.2375 134.866667,164.45625 136.136,162.964583 C137.405333,161.472917 144.704,177.135417 152.32,197.645833 C165.013333,232.327083 166.6,234.9375 175.168,234.9375 L184.053333,234.9375 L184.053333,182.729167 L184.053333,130.520833 L176.12,130.520833 C168.504,130.520833 168.504,131.266667 167.552,163.3375 L166.6,195.78125 L155.810667,163.3375 C145.973333,133.877083 144.386667,130.520833 136.770667,130.520833 C129.472,130.520833 127.250667,133.877083 116.778667,165.202083 L105.037333,199.510417 L105.037333,165.202083 C104.72,130.89375 104.72,130.520833 96.7866667,130.520833 L88.8533333,130.520833 L88.8533333,183.102083 L88.8533333,235.310417 L98.6906667,234.191667 C107.576,233.072917 109.162667,230.4625 120.904,199.510417 Z M671.16,228.970833 C674.650667,224.86875 675.92,217.783333 675.285333,207.714583 C674.333333,190.560417 664.178667,179.372917 649.264,177.88125 C637.84,176.7625 634.666667,185.339583 645.456,188.695833 C656.245333,191.679167 663.861333,202.866667 662.592,213.308333 C661.64,221.139583 659.736,221.885417 643.552,223.004167 L625.146667,224.122917 L625.146667,177.135417 C625.146667,133.13125 624.829333,130.520833 618.8,130.520833 C612.770667,130.520833 612.453333,133.13125 612.453333,182.729167 L612.453333,234.9375 L639.109333,234.9375 C659.736,234.9375 667.034667,233.445833 671.16,228.970833 Z M833.952,220.020833 L832.682667,205.104167 L847.914667,207.341667 C859.338667,209.20625 865.050667,208.0875 871.08,203.6125 C883.773333,193.916667 880.6,168.93125 865.685333,163.3375 C863.146667,162.21875 865.368,156.252083 872.349333,146.183333 L882.821333,130.520833 L874.888,130.520833 C869.493333,130.520833 863.781333,134.995833 857.117333,145.064583 C845.058667,162.964583 844.741333,167.066667 856.482667,171.914583 C867.906667,176.7625 870.762667,184.220833 864.098667,192.052083 C859.656,197.645833 845.376,197.272917 837.125333,191.30625 C835.538667,190.560417 834.586667,176.389583 834.586667,159.98125 C834.586667,133.13125 833.952,130.520833 828.24,130.520833 C822.210667,130.520833 821.893333,133.13125 821.893333,182.729167 C821.893333,233.445833 822.210667,234.9375 828.557333,234.9375 C834.586667,234.9375 835.221333,233.072917 833.952,220.020833 Z M248.154667,201.375 C256.405333,193.916667 261.482667,176.016667 258.309333,165.947917 C256.722667,161.845833 251.328,160.354167 236.096,160.354167 C224.989333,160.354167 215.786667,158.8625 215.786667,156.625 C215.786667,150.285417 228.797333,145.064583 242.125333,146.183333 C253.866667,146.929167 255.453333,146.183333 256.405333,138.725 C257.357333,130.89375 256.405333,130.520833 236.413333,130.520833 C217.373333,130.520833 214.517333,131.639583 205.949333,141.335417 C190.4,159.98125 194.842667,196.154167 213.882667,205.104167 C225.306667,210.697917 239.904,209.20625 248.154667,201.375 Z M313.525333,206.595833 C319.872,204.358333 323.045333,194.289583 318.92,189.441667 C317.968,188.322917 311.938667,188.695833 305.274667,189.814583 C290.36,193.170833 282.426667,190.933333 282.426667,184.220833 C282.426667,180.491667 286.234667,179 295.12,179 C312.256,179 325.266667,164.829167 322.093333,149.9125 C318.92,135.36875 315.112,131.266667 302.101333,129.029167 C284.330667,125.672917 268.464,131.266667 267.194667,140.589583 C266.242667,147.675 267.829333,148.047917 284.648,147.675 C298.928,147.302083 303.053333,148.420833 303.053333,152.895833 C303.053333,156.997917 298.610667,158.8625 287.186667,160.354167 C274.493333,161.845833 270.685333,164.083333 267.512,171.541667 C256.405333,197.272917 281.792,216.291667 313.525333,206.595833 Z M375.722667,206.595833 C378.578667,205.477083 380.8,200.629167 380.8,196.154167 C380.8,189.06875 379.530667,188.322917 363.346667,189.441667 C349.701333,190.560417 345.893333,189.814583 345.893333,185.339583 C345.893333,181.610417 350.336,179.372917 360.173333,178.254167 C378.896,175.64375 383.973333,170.05 383.973333,152.15 C383.973333,138.725 383.021333,137.233333 372.232,131.639583 C355.730667,123.808333 331.930667,128.65625 330.661333,140.216667 C329.709333,147.675 330.978667,148.047917 348.114667,147.675 C362.394667,147.302083 366.52,148.420833 366.52,152.895833 C366.52,156.997917 362.394667,158.8625 351.605333,159.608333 C327.805333,161.472917 319.237333,181.610417 334.786667,199.510417 C340.498667,206.595833 345.893333,208.833333 356.682667,208.833333 C364.298667,208.833333 372.866667,207.714583 375.722667,206.595833 Z M447.44,199.510417 C452.834667,193.916667 453.786667,187.95 453.786667,162.21875 L453.786667,131.639583 L429.034667,131.266667 C402.061333,130.520833 395.08,133.877083 391.906667,149.539583 C388.733333,165.202083 398.570667,176.016667 418.562667,178.254167 C440.458667,180.491667 437.92,187.95 414.754667,189.441667 C399.522667,190.560417 396.666667,191.679167 396.666667,197.645833 C396.666667,206.222917 403.330667,208.460417 424.274667,207.341667 C435.064,206.595833 443.314667,203.985417 447.44,199.510417 Z M520.426667,206.595833 L530.581333,203.985417 L529.312,161.472917 C528.36,119.70625 528.042667,118.5875 519.474667,109.6375 C512.810667,102.925 506.781333,100.6875 495.04,100.6875 C475.682667,100.6875 469.653333,103.297917 469.653333,112.247917 C469.653333,118.214583 472.192,119.333333 486.472,119.333333 C501.386667,119.333333 510.906667,123.808333 510.906667,130.520833 C510.906667,131.639583 505.829333,132.0125 499.8,131.266667 C485.202667,129.402083 471.24,136.114583 466.797333,147.675 C462.354667,159.235417 462.354667,180.864583 466.48,190.1875 C473.461333,205.85 495.357333,212.189583 520.426667,206.595833 Z M594.048,197.645833 C597.221333,192.797917 599.76,183.102083 599.76,174.897917 L599.76,160.354167 L577.546667,160.354167 C565.488,160.354167 555.333333,158.8625 555.333333,156.625 C555.333333,149.9125 568.661333,144.691667 582.624,146.183333 C595.317333,147.302083 596.586667,146.55625 596.586667,139.097917 C596.586667,131.266667 595.317333,130.520833 576.594667,130.520833 C552.794667,130.520833 544.226667,136.4875 539.149333,156.252083 C534.389333,174.897917 539.784,195.408333 551.525333,203.239583 C563.584,211.44375 586.749333,208.0875 594.048,197.645833 Z M735.578667,199.883333 C739.704,195.408333 741.290667,185.339583 741.925333,162.591667 L743.194667,132.0125 L719.394667,131.266667 C691.786667,130.147917 685.44,134.622917 685.44,154.3875 C685.44,170.795833 691.786667,176.016667 712.730667,178.254167 C730.501333,180.11875 731.770667,180.864583 726.693333,190.1875 C724.472,194.289583 718.76,195.408333 706.066667,195.035417 C688.296,194.289583 684.170667,197.645833 694.325333,205.104167 C701.941333,210.697917 729.232,207.341667 735.578667,199.883333 Z M808.565333,200.25625 C809.517333,194.289583 808.248,193.54375 800.632,195.408333 C790.477333,198.01875 774.293333,192.425 770.485333,185.339583 C769.216,182.729167 767.946667,174.525 767.946667,167.066667 C767.946667,149.9125 776.832,141.708333 795.554667,141.708333 C805.709333,141.708333 809.2,140.216667 809.2,136.114583 C809.2,131.639583 805.074667,130.520833 791.429333,130.520833 C776.197333,130.520833 772.706667,132.0125 764.456,141.335417 C753.032,155.133333 751.445333,180.11875 761.6,195.035417 C768.581333,205.477083 775.88,208.0875 794.92,207.341667 C804.44,206.96875 807.930667,205.477083 808.565333,200.25625 Z" id="Shape"></path>
                    <path d="M218.008,187.95 C211.978667,180.491667 216.421333,175.270833 228.797333,175.270833 C239.269333,175.270833 241.490667,176.389583 240.538667,181.983333 C239.586667,188.322917 222.450667,193.170833 218.008,187.95 Z" id="Path"></path>
                    <path d="M415.072,161.472917 C408.090667,159.608333 407.456,149.9125 414.12,146.929167 C421.418667,143.572917 434.746667,148.79375 434.746667,154.760417 C434.746667,157.74375 433.477333,160.354167 431.890667,160.354167 C430.304,160.354167 427.130667,161.1 424.592,161.845833 C422.370667,162.591667 417.928,162.591667 415.072,161.472917 Z" id="Path"></path>
                    <path d="M486.472,185.7125 C480.76,176.7625 479.490667,167.8125 482.346667,158.116667 C485.202667,149.9125 487.106667,148.79375 497.261333,149.9125 L509.32,151.03125 L510.272,170.795833 L511.224,190.1875 L500.434667,190.1875 C494.405333,190.1875 488.058667,187.95 486.472,185.7125 Z" id="Path"></path>
                    <path d="M559.141333,185.7125 C552.477333,177.88125 554.698667,175.270833 568.344,175.270833 C578.816,175.270833 581.037333,176.389583 580.085333,181.983333 C578.816,189.814583 564.853333,192.425 559.141333,185.7125 Z" id="Path"></path>
                    <path d="M703.210667,162.964583 C689.882667,151.404167 703.528,137.60625 722.250667,143.2 C732.405333,146.55625 733.04,162.21875 722.885333,165.575 C712.413333,168.558333 709.557333,168.185417 703.210667,162.964583 Z" id="Path"></path>
                </g>
            </g>
            <g id="C-Logo" transform="translate(767.488660, 164.000000)">
                <path d="M20.5051027,52 C31.8298529,52 41.0103093,41.190883 41.0103093,27.8570634 C41.0103093,14.5234027 31.8298529,3.71428571 20.5051027,3.71428571 C9.18046043,3.71428571 0,14.5234027 0,27.8570634 C0,41.190883 9.18046043,52 20.5051027,52 Z" id="Path" fill="#FFFFFF" fill-rule="nonzero"></path>
                <path d="M22.0824742,0 C9.88665495,0 0,11.64059 0,26 C0,40.359475 9.88665495,52 22.0824742,52 C34.2783487,52 44.1649485,40.359475 44.1649485,26 C44.1649485,11.64059 34.2783487,0 22.0824742,0 Z M22.0824742,2.64407 C33.0380037,2.64407 41.9192988,13.10088 41.9192988,26 C41.9192988,38.8990875 33.0380037,49.3559625 22.0824742,49.3559625 C11.1269171,49.3559625 2.24567722,38.8990875 2.24567722,26 C2.24567722,13.10088 11.1269171,2.64407 22.0824742,2.64407 Z" id="Shape" fill="#4000BF" fill-rule="nonzero"></path>
                <path d="M22.0823911,7.42857143 C30.7937768,7.42857143 37.8556701,15.7432297 37.8556701,26.0000571 C37.8556701,36.2567214 30.7937768,44.5714286 22.0823911,44.5714286 C13.3711717,44.5714286 6.30927835,36.2567214 6.30927835,26.0000571 C6.30927835,23.4932855 6.73106147,21.1026075 7.49564984,18.9209629 C8.61204497,20.710955 10.4124165,21.8730313 12.443282,21.8730313 C15.8310493,21.8730313 18.5773411,18.639534 18.5773411,14.6507769 C18.5773411,12.259626 17.59036,10.1398762 16.0699355,8.82544354 C17.9230005,7.92519721 19.9534645,7.42857143 22.0823911,7.42857143 Z" id="Path" fill="url(#linearGradient-ffjchnle2t-1)"></path>
            </g>
            <g id="G-Logo" transform="translate(494.647423, 187.000000) rotate(-360.000000) translate(-494.647423, -187.000000) translate(481.888660, 172.000000)">
                <path d="M12.7587305,30 C19.8052418,30 25.5175258,23.2842764 25.5175258,14.9999506 C25.5175258,6.71572356 19.8052418,0 12.7587305,0 C5.71228649,0 1.56249781e-13,6.71572356 1.56249781e-13,14.9999506 C1.56249781e-13,23.2842764 5.71228649,30 12.7587305,30 Z" id="Path" fill="#FFFFFF" fill-rule="nonzero"></path>
                <path d="M12.7587629,0 C5.71228953,0 8.87482214e-14,6.715725 8.87482214e-14,15 C8.87482214e-14,23.2843125 5.71228953,30 12.7587629,30 C19.8052681,30 25.5175258,23.2843125 25.5175258,15 C25.5175258,6.715725 19.8052681,0 12.7587629,0 Z M12.7587629,1.525425 C19.0886244,1.525425 24.2200393,7.5582 24.2200393,15 C24.2200393,22.4417813 19.0886244,28.4745938 12.7587629,28.4745938 C6.42888544,28.4745938 1.29750239,22.4417813 1.29750239,15 C1.29750239,7.5582 6.42888544,1.525425 12.7587629,1.525425 Z" id="Shape" fill="#4000BF" fill-rule="nonzero"></path>
                <path d="M12.7587125,3.75 C18.0436198,3.75 22.3278351,8.78676414 22.3278351,15.0000346 C22.3278351,21.2132062 18.0436198,26.25 12.7587125,26.25 C7.473906,26.25 3.18969072,21.2132062 3.18969072,15.0000346 C3.18969072,13.4815095 3.44557248,12.0333103 3.90942276,10.7117372 C4.58670247,11.7960593 5.67892784,12.5000093 6.9109863,12.5000093 C8.96623175,12.5000093 10.6323155,10.5412562 10.6323155,8.12498985 C10.6323155,6.6765042 10.0335469,5.39242502 9.11115608,4.59618214 C10.2353488,4.05084062 11.4671636,3.75 12.7587125,3.75 Z" id="Path" fill="url(#linearGradient-ffjchnle2t-2)"></path>
            </g>
        </g>
    </g>
</svg>