<svg width="48px" height="48px" viewBox="0 0 48 48" version="1.1"
    xmlns="http://www.w3.org/2000/svg"
    xmlns:xlink="http://www.w3.org/1999/xlink">
    <defs>
        <linearGradient x1="49.9997366%" y1="100%" x2="49.9997366%" y2="0%" id="linearGradient-drs9_3rwm8-1">
            <stop stop-color="#7400E1" offset="0%"></stop>
            <stop stop-color="#4000BF" offset="100%"></stop>
        </linearGradient>
    </defs>
    <g id="Page-1" stroke="none" stroke-width="1" fill="none" fill-rule="evenodd">
        <g id="Icon-Artboard">
            <rect fill="#FFFFFF" x="0" y="0" width="48" height="48"></rect>
            <g id="Icon">
                <g id="Insomnia-Logo" fill="url(#linearGradient-drs9_3rwm8-1)">
                    <path d="M23.9998736,0 C37.2548447,0 48,10.7450968 48,24.0000737 C48,37.25484 37.2548447,48 23.9998736,48 C10.7451553,48 0,37.25484 0,24.0000737 C0,20.7605536 0.641771965,17.671062 1.80514564,14.8517059 C3.50381744,17.1649264 6.24320623,18.6666866 9.33330758,18.6666866 C14.4880279,18.6666866 18.6666994,14.4880132 18.6666994,9.33331168 C18.6666994,6.24320897 17.16494,3.50384005 14.8515098,1.80518857 C17.6710753,0.641793318 20.7605656,0 23.9998736,0 Z" id="Path"></path>
                </g>
                <g id="MP-Icon" transform="translate(25.285714, 24.857143) rotate(-45.000000) translate(-25.285714, -24.857143) translate(6.857143, 15.428571)" fill="#FFFFFF" fill-rule="nonzero">
                    <path d="M6.63714286,12.4148449 C8.08285714,9.12658871 9.52857143,6.10676157 9.79142857,5.83833249 C10.0542857,5.56990341 11.5657143,8.38840874 13.1428571,12.0793086 C15.7714286,18.3202847 16.1,18.7900356 17.8742857,18.7900356 L19.7142857,18.7900356 L19.7142857,9.39501779 L19.7142857,1.47554573e-14 L18.0714286,1.47554573e-14 C16.4942857,1.47554573e-14 16.4942857,0.13421454 16.2971429,5.90543976 L16.1,11.7437722 L13.8657143,5.90543976 C11.8285714,0.60396543 11.5,1.47554573e-14 9.92285714,1.47554573e-14 C8.41142857,1.47554573e-14 7.95142857,0.60396543 5.78285714,6.24097611 L3.35142857,12.4148449 L3.35142857,6.24097611 C3.28571429,0.06710727 3.28571429,1.47554573e-14 1.64285714,1.47554573e-14 L-1.50639767e-14,1.47554573e-14 L-1.50639767e-14,9.46212506 L-1.50639767e-14,18.8571429 L2.03714286,18.655821 C3.87714286,18.4544992 4.20571429,17.9847483 6.63714286,12.4148449 Z" id="Path" transform="translate(9.857143, 9.428571) rotate(-180.000000) translate(-9.857143, -9.428571) "></path>
                    <path d="M35.9830014,17.7795918 C36.6955042,17.0387755 36.9545961,15.7591837 36.8250502,13.9408163 C36.6307312,10.8428571 34.5579958,8.82244898 31.5136658,8.55306122 C29.1818384,8.35102041 28.5341086,9.9 30.73639,10.5061224 C32.9386713,11.044898 34.4932229,13.0653061 34.2341309,14.9510204 C34.039812,16.3653061 33.6511741,16.5 30.3477521,16.7020408 L26.5909192,16.9040816 L26.5909192,8.41836735 C26.5909192,0.471428571 26.5261462,9.44517244e-14 25.2954596,9.44517244e-14 C24.064773,9.44517244e-14 24,0.471428571 24,9.42857143 L24,18.8571429 L29.4409304,18.8571429 C33.6511741,18.8571429 35.1409527,18.5877551 35.9830014,17.7795918 Z" id="Path" transform="translate(30.428571, 9.428571) scale(-1, 1) rotate(-180.000000) translate(-30.428571, -9.428571) "></path>
                </g>
            </g>
        </g>
    </g>
</svg>